<?xml version="1.0" encoding="UTF-8"?>
<!DOCTYPE svg PUBLIC "-//W3C//DTD SVG 1.1//EN" "http://www.w3.org/Graphics/SVG/1.1/DTD/svg11.dtd">
<!-- Creator: CorelDRAW X7 -->
<svg xmlns="http://www.w3.org/2000/svg" xml:space="preserve" width="210mm" height="297mm" version="1.1" style="shape-rendering:geometricPrecision; text-rendering:geometricPrecision; image-rendering:optimizeQuality; fill-rule:evenodd; clip-rule:evenodd"
viewBox="0 0 21000 29700"
 xmlns:xlink="http://www.w3.org/1999/xlink">
 <defs>
  <style type="text/css">
   <![CDATA[
    .fil0 {fill:#FEFEFE}
   ]]>
  </style>
 </defs>
 <g id="Layer_x0020_1">
  <metadata id="CorelCorpID_0Corel-Layer"/>
  <g id="_2027259481552">
   <path class="fil0" d="M41204 14242c-517,0 -924,-303 -924,-840 0,-739 1065,-790 1730,-958 197,-49 568,-172 748,-176 0,563 -57,1134 -325,1439 -256,291 -705,535 -1229,535zm-2184 -3486c0,549 792,841 1127,329 485,-742 659,-875 1645,-875 725,0 911,428 966,1092 -121,58 -436,130 -588,168 -974,241 -2364,388 -2910,912 -1111,1067 -203,2826 1146,2826 970,0 1402,-58 2242,-656 121,-85 105,-107 236,-142 48,180 507,798 840,798 417,0 756,-205 756,-588 0,-270 -117,-535 -177,-789 -77,-325 -75,-513 -75,-933 0,-1020 198,-2665 -647,-3302 -645,-486 -1484,-436 -2293,-436 -1018,0 -2268,619 -2268,1596z"/>
   <path class="fil0" d="M60691 10210l126 0c774,0 1260,690 1260,1470l-2646 0c0,-755 507,-1470 1260,-1470zm-2814 1638c0,971 37,1778 765,2553l368 304c669,481 1304,502 2037,503l36 0 37 0 37 0 38 0c597,0 1065,-199 1452,-438 562,-345 1081,-1091 679,-1483 -55,-53 -242,-137 -326,-137 -323,0 -341,88 -516,239 -90,78 -116,79 -209,170 -363,352 -653,599 -1284,650 -986,79 -1560,-650 -1560,-1647l3065 0c925,0 1050,-403 1050,-1008 0,-1226 -1164,-2394 -2519,-2394 -976,0 -1682,101 -2364,787 -438,441 -786,1260 -786,1901z"/>
   <path class="fil0" d="M25665 9874l0 3402c0,1135 731,1932 1764,1932 742,0 1244,-83 1774,-620 126,-127 226,-251 368,-346 0,309 -9,433 110,645 104,186 282,291 473,321l229 0c301,-47 574,-277 574,-672l0 -4662c0,-837 -1053,-894 -1345,-421 -217,351 -126,1926 -124,2396 1,330 -38,1186 -189,1491 -391,790 -1793,1097 -2062,-82 -135,-590 -21,-2400 -60,-3174 -33,-674 -264,-924 -840,-924 -399,0 -672,322 -672,714z"/>
   <path class="fil0" d="M32342 9832l0 4578c0,425 269,798 588,798l237 0c215,-8 392,-60 550,-348 224,-410 137,-1792 137,-2382 0,-640 -32,-1038 195,-1486 242,-476 628,-656 1191,-656 1039,0 924,1351 924,2268 0,532 2,1064 0,1596 -1,335 -20,458 116,682 112,185 293,292 488,326l273 0c314,-55 593,-298 593,-714l0 -3402c0,-1093 -775,-1932 -1806,-1932 -578,0 -862,-12 -1400,322 -425,265 -551,535 -700,644 0,-317 32,-436 -106,-649 -362,-556 -1280,-370 -1280,355z"/>
   <path class="fil0" d="M19071 8068l0 5880c0,676 205,1134 882,1134l4158 0c910,0 993,-1344 -126,-1344l-3276 0 0 -5922c0,-290 -85,-489 -239,-643 -370,-370 -1399,-444 -1399,895z"/>
   <path class="fil0" d="M45614 8236l0 1050c-1204,0 -963,1092 -294,1092l294 0 0 2814c0,950 133,2016 1344,2016l333 0c597,-7 1514,-76 1514,-630 0,-1308 -1482,66 -1629,-891 -86,-559 -51,-2542 -51,-3183 0,-334 1218,164 1218,-630 0,-661 -719,-588 -1218,-588l0 -1386c0,-877 -1511,-1248 -1511,336z"/>
   <path class="fil0" d="M51829 9748c0,428 338,1116 498,1518 207,519 1285,3252 1483,3557 233,360 441,383 769,385l70 0 18 0 18 0c619,0 840,-799 1032,-1278l1350 -3354c97,-243 283,-638 234,-881 -93,-462 -433,-535 -810,-535 -514,0 -846,1394 -1080,1986 -76,194 -795,2081 -810,2256 -111,-81 -82,-88 -132,-246l-1128 -3156c-264,-666 -235,-840 -924,-840 -262,0 -588,326 -588,588z"/>
   <path class="fil0" d="M49309 10042l0 4284c0,523 314,829 656,882l211 0c337,-53 645,-362 645,-966l0 -4116c0,-233 -41,-467 -142,-614 -371,-540 -1370,-416 -1370,530z"/>
   <path class="fil0" d="M49393 7774c0,168 86,430 143,572 107,268 169,344 371,386 221,46 430,70 592,-62 429,-349 132,-966 22,-1351 -134,-464 -30,-500 6,-931 -332,223 -1134,532 -1134,1386z"/>
  </g>
  <path class="fil0" d="M6589 8804c-185,495 -267,827 -331,1306 -91,680 -36,1402 131,2060 161,636 435,1207 794,1757 128,198 468,618 640,777 747,684 1098,957 2145,1347 388,145 764,213 1118,261 375,51 687,43 1031,30 352,-13 607,-63 938,-135l885 -289c517,-232 742,-367 1185,-688 592,-430 1142,-1078 1505,-1723 38,-68 113,-209 137,-268 -19,10 -9,2 -41,23 -311,201 -258,225 -745,483 -91,48 -105,66 -209,108l-438 174c-1088,353 -2307,308 -3347,-208 -1510,-748 -2532,-2299 -2511,-4006 19,-1568 816,-3009 2175,-3814 417,-247 945,-457 1424,-542l123 -33c-151,-56 -417,-96 -554,-118 -536,-86 -1033,-80 -1546,-26 -166,17 -299,45 -464,77 -98,19 -141,37 -234,55 -288,54 -832,276 -1092,401 -79,37 -110,67 -193,105 -140,65 -477,291 -602,381 -316,227 -444,337 -729,631 -450,465 -897,1075 -1195,1874z"/>
 </g>
</svg>
